<svg width="164" height="38" viewBox="0 0 164 38" fill="none" xmlns="http://www.w3.org/2000/svg">
<g filter="url(#filter0_dd_13001_399)">
<rect x="3.1" y="2.1" width="31.8" height="31.8" rx="7.9" fill="white"/>
<rect x="3.1" y="2.1" width="31.8" height="31.8" rx="7.9" fill="url(#paint0_linear_13001_399)"/>
<rect x="3.1" y="2.1" width="31.8" height="31.8" rx="7.9" stroke="#D0D5DD" stroke-width="0.2"/>
<path d="M18.3546 13.1828C22.7105 11.4504 27.4742 12.8185 29.6373 14.9133C30.106 15.3671 30.5041 15.8275 30.845 16.2852C31.0394 15.2107 31.0552 14.1405 30.8681 13.1055C30.1847 9.32649 26.6195 7.18561 23.4233 8.29149C20.2415 9.3924 19.0005 11.5321 19.0005 11.5321C19.0005 11.5321 17.7595 9.3924 14.5777 8.29149C11.3812 7.18561 7.81603 9.32672 7.1328 13.1055C6.62842 15.8944 7.58356 18.9392 9.61033 21.6298C10.0372 21.7732 10.4847 21.8809 10.9586 21.9431C13.7978 22.3163 14.8184 21.557 16.0178 21.0486C16.8142 20.7113 17.4134 21.0942 17.3843 21.3626C17.3392 21.7786 15.7693 22.4895 16.106 22.6388C17.4351 23.2285 19.0718 23.2334 20.3053 22.18C21.838 20.8712 22.4114 21.7659 22.4114 21.7659C22.4114 21.7659 21.6502 23.7076 19.3581 24.6717C17.4457 25.4761 15.4419 25.6743 13.6107 25.4683C15.19 26.5846 17.0035 27.5204 19.0005 28.1883C24.7099 26.2784 28.9276 22.1871 30.4145 17.9096C29.4072 16.9157 28.1716 16.2996 26.6988 16.0763C23.8674 15.6471 22.8322 16.3863 21.6228 16.8708C20.8198 17.1926 20.2285 16.7978 20.263 16.5299C20.3161 16.1148 21.8999 15.4351 21.5661 15.279C20.249 14.6633 18.6125 14.626 17.3585 15.6549C15.8003 16.9332 15.2446 16.0274 15.2446 16.0274C15.2446 16.0274 16.0438 14.1015 18.3546 13.1828ZM17.2709 18.5052H18.3709V17.4052H19.6296V18.5052H20.7296V19.7639H19.6296V20.8639H18.3709V19.7639H17.2709V18.5052Z" fill="url(#paint1_linear_13001_399)"/>
</g>
<path d="M46.728 28V10.12H49.992V19.432L49.104 19.12L56.712 10.12H60.816L53.688 18.568L53.88 16.264L61.032 28H57.192L52.392 20.128L49.992 22.984V28H46.728ZM66.4787 28.288C65.5667 28.288 64.7747 28.136 64.1027 27.832C63.4307 27.528 62.9107 27.096 62.5427 26.536C62.1747 25.96 61.9907 25.296 61.9907 24.544C61.9907 23.824 62.1507 23.184 62.4707 22.624C62.7907 22.048 63.2867 21.568 63.9587 21.184C64.6307 20.8 65.4787 20.528 66.5027 20.368L70.7747 19.672V22.072L67.1027 22.696C66.4787 22.808 66.0147 23.008 65.7107 23.296C65.4067 23.584 65.2547 23.96 65.2547 24.424C65.2547 24.872 65.4227 25.232 65.7587 25.504C66.1107 25.76 66.5427 25.888 67.0547 25.888C67.7107 25.888 68.2867 25.752 68.7827 25.48C69.2947 25.192 69.6867 24.8 69.9587 24.304C70.2467 23.808 70.3907 23.264 70.3907 22.672V19.312C70.3907 18.752 70.1667 18.288 69.7187 17.92C69.2867 17.536 68.7107 17.344 67.9907 17.344C67.3187 17.344 66.7187 17.528 66.1907 17.896C65.6787 18.248 65.3027 18.72 65.0627 19.312L62.4947 18.064C62.7507 17.376 63.1507 16.784 63.6947 16.288C64.2547 15.776 64.9107 15.376 65.6627 15.088C66.4147 14.8 67.2307 14.656 68.1107 14.656C69.1827 14.656 70.1267 14.856 70.9427 15.256C71.7587 15.64 72.3907 16.184 72.8387 16.888C73.3027 17.576 73.5347 18.384 73.5347 19.312V28H70.5587V25.768L71.2307 25.72C70.8947 26.28 70.4947 26.752 70.0307 27.136C69.5667 27.504 69.0387 27.792 68.4467 28C67.8547 28.192 67.1987 28.288 66.4787 28.288ZM76.4406 28V14.944H79.3926V17.848L79.1526 17.416C79.4566 16.44 79.9286 15.76 80.5686 15.376C81.2246 14.992 82.0086 14.8 82.9206 14.8H83.6886V17.584H82.5606C81.6646 17.584 80.9446 17.864 80.4006 18.424C79.8566 18.968 79.5846 19.736 79.5846 20.728V28H76.4406ZM91.6091 28.288C90.2651 28.288 89.0891 27.984 88.0811 27.376C87.0731 26.768 86.2891 25.944 85.7291 24.904C85.1691 23.864 84.8891 22.712 84.8891 21.448C84.8891 20.136 85.1691 18.976 85.7291 17.968C86.3051 16.944 87.0811 16.136 88.0571 15.544C89.0491 14.952 90.1531 14.656 91.3691 14.656C92.3931 14.656 93.2891 14.824 94.0571 15.16C94.8411 15.496 95.5051 15.96 96.0491 16.552C96.5931 17.144 97.0091 17.824 97.2971 18.592C97.5851 19.344 97.7291 20.16 97.7291 21.04C97.7291 21.264 97.7131 21.496 97.6811 21.736C97.6651 21.976 97.6251 22.184 97.5611 22.36H87.4811V19.96H95.7851L94.2971 21.088C94.4411 20.352 94.4011 19.696 94.1771 19.12C93.9691 18.544 93.6171 18.088 93.1211 17.752C92.6411 17.416 92.0571 17.248 91.3691 17.248C90.7131 17.248 90.1291 17.416 89.6171 17.752C89.1051 18.072 88.7131 18.552 88.4411 19.192C88.1851 19.816 88.0891 20.576 88.1531 21.472C88.0891 22.272 88.1931 22.984 88.4651 23.608C88.7531 24.216 89.1691 24.688 89.7131 25.024C90.2731 25.36 90.9131 25.528 91.6331 25.528C92.3531 25.528 92.9611 25.376 93.4571 25.072C93.9691 24.768 94.3691 24.36 94.6571 23.848L97.2011 25.096C96.9451 25.72 96.5451 26.272 96.0011 26.752C95.4571 27.232 94.8091 27.608 94.0571 27.88C93.3211 28.152 92.5051 28.288 91.6091 28.288ZM100.376 28V10.12H107.048C108.264 10.12 109.336 10.344 110.264 10.792C111.208 11.224 111.944 11.864 112.472 12.712C113 13.544 113.264 14.56 113.264 15.76C113.264 16.944 112.992 17.96 112.448 18.808C111.92 19.64 111.192 20.28 110.264 20.728C109.336 21.176 108.264 21.4 107.048 21.4H103.64V28H100.376ZM103.64 18.52H107.096C107.688 18.52 108.2 18.408 108.632 18.184C109.064 17.944 109.4 17.616 109.64 17.2C109.88 16.784 110 16.304 110 15.76C110 15.2 109.88 14.72 109.64 14.32C109.4 13.904 109.064 13.584 108.632 13.36C108.2 13.12 107.688 13 107.096 13H103.64V18.52ZM115.675 28V9.832H118.819V28H115.675ZM126.378 28.288C125.37 28.288 124.49 28.064 123.738 27.616C123.002 27.168 122.434 26.544 122.034 25.744C121.65 24.944 121.458 24.008 121.458 22.936V14.944H124.602V22.672C124.602 23.216 124.706 23.696 124.914 24.112C125.138 24.512 125.45 24.832 125.85 25.072C126.266 25.296 126.73 25.408 127.242 25.408C127.754 25.408 128.21 25.296 128.61 25.072C129.01 24.832 129.322 24.504 129.546 24.088C129.77 23.672 129.882 23.176 129.882 22.6V14.944H133.026V28H130.05V25.432L130.314 25.888C130.01 26.688 129.506 27.288 128.802 27.688C128.114 28.088 127.306 28.288 126.378 28.288ZM140.916 28.288C139.524 28.288 138.308 27.96 137.268 27.304C136.244 26.632 135.54 25.728 135.156 24.592L137.508 23.464C137.844 24.2 138.308 24.776 138.9 25.192C139.508 25.608 140.18 25.816 140.916 25.816C141.492 25.816 141.948 25.688 142.284 25.432C142.62 25.176 142.788 24.84 142.788 24.424C142.788 24.168 142.716 23.96 142.572 23.8C142.444 23.624 142.26 23.48 142.02 23.368C141.796 23.24 141.548 23.136 141.276 23.056L139.14 22.456C138.036 22.136 137.196 21.648 136.62 20.992C136.06 20.336 135.78 19.56 135.78 18.664C135.78 17.864 135.98 17.168 136.38 16.576C136.796 15.968 137.364 15.496 138.084 15.16C138.82 14.824 139.66 14.656 140.604 14.656C141.836 14.656 142.924 14.952 143.868 15.544C144.812 16.136 145.484 16.968 145.884 18.04L143.484 19.168C143.26 18.576 142.884 18.104 142.356 17.752C141.828 17.4 141.236 17.224 140.58 17.224C140.052 17.224 139.636 17.344 139.332 17.584C139.028 17.824 138.876 18.136 138.876 18.52C138.876 18.76 138.94 18.968 139.068 19.144C139.196 19.32 139.372 19.464 139.596 19.576C139.836 19.688 140.108 19.792 140.412 19.888L142.5 20.512C143.572 20.832 144.396 21.312 144.972 21.952C145.564 22.592 145.86 23.376 145.86 24.304C145.86 25.088 145.652 25.784 145.236 26.392C144.82 26.984 144.244 27.448 143.508 27.784C142.772 28.12 141.908 28.288 140.916 28.288Z" fill="url(#paint2_linear_13001_399)"/>
<defs>
<filter id="filter0_dd_13001_399" x="0" y="0" width="38" height="38" filterUnits="userSpaceOnUse" color-interpolation-filters="sRGB">
<feFlood flood-opacity="0" result="BackgroundImageFix"/>
<feColorMatrix in="SourceAlpha" type="matrix" values="0 0 0 0 0 0 0 0 0 0 0 0 0 0 0 0 0 0 127 0" result="hardAlpha"/>
<feOffset dy="1"/>
<feGaussianBlur stdDeviation="1"/>
<feColorMatrix type="matrix" values="0 0 0 0 0.0627451 0 0 0 0 0.0941176 0 0 0 0 0.156863 0 0 0 0.06 0"/>
<feBlend mode="normal" in2="BackgroundImageFix" result="effect1_dropShadow_13001_399"/>
<feColorMatrix in="SourceAlpha" type="matrix" values="0 0 0 0 0 0 0 0 0 0 0 0 0 0 0 0 0 0 127 0" result="hardAlpha"/>
<feOffset dy="1"/>
<feGaussianBlur stdDeviation="1.5"/>
<feColorMatrix type="matrix" values="0 0 0 0 0.0627451 0 0 0 0 0.0941176 0 0 0 0 0.156863 0 0 0 0.1 0"/>
<feBlend mode="normal" in2="effect1_dropShadow_13001_399" result="effect2_dropShadow_13001_399"/>
<feBlend mode="normal" in="SourceGraphic" in2="effect2_dropShadow_13001_399" result="shape"/>
</filter>
<linearGradient id="paint0_linear_13001_399" x1="19" y1="2" x2="19" y2="34" gradientUnits="userSpaceOnUse">
<stop stop-color="white"/>
<stop offset="1" stop-color="#D0D5DD"/>
</linearGradient>
<linearGradient id="paint1_linear_13001_399" x1="10.1989" y1="24.2137" x2="27.8347" y2="6.57791" gradientUnits="userSpaceOnUse">
<stop stop-color="#7E22CE"/>
<stop offset="1" stop-color="#EC4899"/>
</linearGradient>
<linearGradient id="paint2_linear_13001_399" x1="45" y1="18" x2="147" y2="18" gradientUnits="userSpaceOnUse">
<stop stop-color="#7E22CE"/>
<stop offset="1" stop-color="#EC4899"/>
</linearGradient>
</defs>
</svg>
